<svg xmlns="http://www.w3.org/2000/svg" viewBox="0 0 512 512">
  <defs>
    <linearGradient id="card" x1="118" y1="74" x2="394" y2="446" gradientUnits="userSpaceOnUse">
      <stop offset="0" stop-color="#243a2e"/>
      <stop offset="0.55" stop-color="#101a15"/>
      <stop offset="1" stop-color="#0a0f0c"/>
    </linearGradient>
    <linearGradient id="gold" x1="132" y1="68" x2="390" y2="432" gradientUnits="userSpaceOnUse">
      <stop offset="0" stop-color="#ffe39a"/>
      <stop offset="0.48" stop-color="#f2c14e"/>
      <stop offset="1" stop-color="#bd741a"/>
    </linearGradient>
    <filter id="shadow" x="-20%" y="-20%" width="140%" height="140%">
      <feDropShadow dx="0" dy="18" stdDeviation="18" flood-color="#000000" flood-opacity="0.45"/>
    </filter>
  </defs>
  <rect width="512" height="512" rx="112" fill="#0d1410"/>
  <g filter="url(#shadow)" transform="rotate(-7 256 256)">
    <rect x="126" y="86" width="260" height="340" rx="34" fill="url(#card)" stroke="url(#gold)" stroke-width="18"/>
    <path d="M174 154l39-50 43 46 44-46 38 50-24 45H198l-24-45z" fill="url(#gold)"/>
    <circle cx="214" cy="166" r="10" fill="#0d1410"/>
    <circle cx="256" cy="166" r="10" fill="#0d1410"/>
    <circle cx="298" cy="166" r="10" fill="#0d1410"/>
    <path d="M187 255c18-34 47-55 85-55 35 0 63 17 81 51" fill="none" stroke="#f2c14e" stroke-width="28" stroke-linecap="round"/>
    <path d="M208 235c21-19 52-27 85-18" fill="none" stroke="#ffffff" stroke-width="17" stroke-linecap="round" opacity="0.9"/>
    <path d="M187 312c43 35 96 36 138 1" fill="none" stroke="#f2c14e" stroke-width="22" stroke-linecap="round"/>
    <path d="M258 303c20 0 38-4 55-13" fill="none" stroke="#ffffff" stroke-width="10" stroke-linecap="round" opacity="0.82"/>
    <path d="M151 372h210" stroke="#f2c14e" stroke-width="12" stroke-linecap="round" opacity="0.5"/>
  </g>
  <path d="M114 102c-30 8-55 31-67 61 21-13 46-17 70-10" fill="#f2c14e" opacity="0.9"/>
  <path d="M398 412c31-8 56-31 67-61-21 13-46 17-70 10" fill="#f2c14e" opacity="0.9"/>
</svg>
